<svg id="svg" version="1.1" xmlns="http://www.w3.org/2000/svg" xmlns:xlink="http://www.w3.org/1999/xlink" width="400" height="400" viewBox="0, 0, 400,400"><g id="svgg"><path id="path0" d="M200.370 132.222 C 200.676 132.420,201.176 132.581,201.481 132.581 C 201.975 132.581,201.975 132.541,201.481 132.222 C 201.176 132.025,200.676 131.863,200.370 131.863 C 199.877 131.863,199.877 131.903,200.370 132.222 M204.552 134.976 C 204.910 135.333,205.453 136.110,205.759 136.702 C 206.065 137.294,206.411 137.778,206.529 137.778 C 206.924 137.778,204.905 134.660,204.401 134.492 C 204.098 134.391,204.157 134.581,204.552 134.976 M196.667 135.328 C 196.667 135.407,197.158 135.544,197.758 135.632 C 198.359 135.720,198.765 135.655,198.662 135.489 C 198.479 135.192,196.667 135.046,196.667 135.328 M199.327 140.557 C 199.560 141.067,199.800 141.435,199.860 141.374 C 200.086 141.149,199.532 139.630,199.224 139.630 C 199.048 139.630,199.095 140.047,199.327 140.557 M221.296 144.444 L 220.556 144.763 221.296 144.783 C 221.704 144.794,222.287 144.642,222.593 144.444 C 223.329 143.969,222.404 143.969,221.296 144.444 M190.741 145.926 C 191.757 147.354,191.998 147.355,191.186 145.928 C 190.839 145.318,190.419 144.818,190.253 144.817 C 190.086 144.816,190.306 145.315,190.741 145.926 M201.261 146.721 C 200.559 147.511,200.560 147.513,201.389 147.078 C 201.847 146.837,202.222 146.480,202.222 146.283 C 202.222 145.757,202.045 145.838,201.261 146.721 M204.187 149.433 C 203.616 149.936,203.247 150.352,203.368 150.359 C 203.489 150.365,204.073 149.954,204.665 149.445 C 205.256 148.936,205.625 148.519,205.484 148.519 C 205.342 148.519,204.759 148.930,204.187 149.433 M65.957 154.578 C 66.042 154.651,66.611 154.822,67.222 154.959 C 68.034 155.141,68.184 155.106,67.778 154.832 C 67.278 154.493,65.585 154.257,65.957 154.578 M50.185 155.820 C 49.051 156.092,48.702 156.600,49.792 156.391 C 50.320 156.290,50.842 156.061,50.953 155.882 C 51.064 155.702,51.103 155.575,51.040 155.599 C 50.977 155.622,50.593 155.722,50.185 155.820 M77.037 157.621 C 77.037 157.871,78.961 158.570,79.144 158.387 C 79.228 158.303,78.789 158.057,78.167 157.840 C 77.546 157.623,77.037 157.525,77.037 157.621 M187.535 158.349 C 187.415 158.664,187.420 159.025,187.547 159.152 C 187.674 159.279,187.778 159.117,187.778 158.791 C 187.778 158.466,188.153 158.127,188.611 158.039 L 189.444 157.879 188.599 157.828 C 188.135 157.800,187.656 158.035,187.535 158.349 M80.473 159.722 C 80.053 160.265,79.587 161.481,79.799 161.481 C 79.880 161.481,80.195 160.981,80.500 160.370 C 81.084 159.201,81.073 158.947,80.473 159.722 M160.601 161.311 C 160.474 161.642,160.387 162.274,160.408 162.715 C 160.432 163.223,160.558 163.043,160.750 162.225 C 161.074 160.848,160.986 160.309,160.601 161.311 M272.593 161.852 C 271.830 162.096,271.797 162.154,272.407 162.180 C 272.815 162.197,273.398 162.049,273.704 161.852 C 274.353 161.432,273.902 161.432,272.593 161.852 M78.398 164.011 C 77.325 166.235,77.014 167.037,77.223 167.037 C 77.312 167.037,77.832 166.079,78.377 164.907 C 78.922 163.736,79.436 162.653,79.520 162.500 C 79.605 162.347,79.581 162.222,79.467 162.222 C 79.354 162.222,78.873 163.027,78.398 164.011 M178.354 166.132 C 178.214 166.875,178.174 167.557,178.265 167.648 C 178.356 167.738,178.544 167.204,178.683 166.461 C 178.823 165.718,178.863 165.035,178.772 164.945 C 178.682 164.854,178.493 165.388,178.354 166.132 M187.501 166.852 C 187.505 167.667,187.581 167.956,187.669 167.496 C 187.758 167.035,187.755 166.368,187.662 166.014 C 187.569 165.660,187.497 166.037,187.501 166.852 M261.097 167.437 L 259.815 168.577 261.007 167.790 C 262.065 167.092,262.864 166.296,262.508 166.296 C 262.437 166.296,261.802 166.809,261.097 167.437 M90.556 168.519 C 90.872 169.130,91.213 169.630,91.315 169.630 C 91.417 169.630,91.242 169.130,90.926 168.519 C 90.610 167.907,90.268 167.407,90.166 167.407 C 90.064 167.407,90.240 167.907,90.556 168.519 M75.496 170.278 C 75.054 171.245,74.627 172.162,74.546 172.315 C 74.466 172.468,74.482 172.593,74.581 172.593 C 74.773 172.593,75.778 170.720,76.319 169.352 C 76.932 167.801,76.306 168.506,75.496 170.278 M177.269 170.046 C 176.960 171.590,177.259 171.889,177.593 170.370 C 177.733 169.730,177.771 169.129,177.677 169.035 C 177.582 168.940,177.399 169.396,177.269 170.046 M332.222 171.481 C 331.992 172.337,331.876 173.110,331.964 173.199 C 332.053 173.287,332.305 172.651,332.525 171.785 C 332.745 170.918,332.861 170.145,332.783 170.067 C 332.705 169.989,332.453 170.626,332.222 171.481 M256.705 171.680 C 256.073 172.400,255.561 173.191,255.567 173.439 C 255.573 173.686,255.767 173.556,255.998 173.148 C 256.229 172.741,256.516 172.324,256.635 172.222 C 256.754 172.120,257.169 171.662,257.557 171.204 C 258.718 169.833,257.949 170.262,256.705 171.680 M145.416 171.681 C 145.289 172.012,145.200 172.561,145.217 172.901 C 145.235 173.240,145.396 173.027,145.575 172.426 C 145.924 171.257,145.801 170.679,145.416 171.681 M187.899 174.259 C 187.901 175.685,187.968 176.223,188.048 175.455 C 188.128 174.686,188.127 173.520,188.045 172.862 C 187.963 172.205,187.898 172.833,187.899 174.259 M300.741 173.214 C 300.231 173.753,300.051 174.116,300.339 174.021 C 300.801 173.868,302.156 172.212,301.804 172.229 C 301.729 172.232,301.250 172.676,300.741 173.214 M336.389 173.965 C 335.931 174.053,335.556 174.265,335.556 174.436 C 335.556 174.818,336.973 174.478,337.250 174.029 C 337.361 173.850,337.400 173.726,337.337 173.754 C 337.274 173.782,336.847 173.877,336.389 173.965 M93.737 174.630 C 93.737 174.833,94.139 175.750,94.630 176.667 C 95.120 177.583,95.522 178.167,95.522 177.963 C 95.522 177.759,95.120 176.843,94.630 175.926 C 94.139 175.009,93.737 174.426,93.737 174.630 M298.148 176.177 C 297.639 176.716,297.458 177.079,297.746 176.984 C 298.209 176.831,299.563 175.175,299.212 175.192 C 299.136 175.195,298.657 175.639,298.148 176.177 M50.819 176.308 C 50.572 176.703,50.371 177.238,50.373 177.495 C 50.374 177.752,50.627 177.480,50.935 176.889 C 51.577 175.659,51.492 175.231,50.819 176.308 M206.019 176.852 C 206.023 177.667,206.099 177.956,206.188 177.496 C 206.276 177.035,206.273 176.368,206.180 176.014 C 206.088 175.660,206.015 176.037,206.019 176.852 M253.209 176.944 C 252.672 178.125,252.665 178.222,253.167 177.593 C 254.064 176.467,254.507 175.556,254.156 175.556 C 253.983 175.556,253.556 176.181,253.209 176.944 M144.890 177.753 C 145.351 178.554,145.780 179.158,145.843 179.095 C 146.038 178.900,144.646 176.315,144.341 176.305 C 144.182 176.300,144.429 176.952,144.890 177.753 M295.648 179.040 C 294.701 180.039,294.519 180.706,295.391 179.983 C 295.916 179.547,296.837 178.139,296.587 178.155 C 296.529 178.158,296.106 178.557,295.648 179.040 M289.050 180.702 C 289.188 180.925,289.645 181.291,290.065 181.516 C 290.613 181.810,290.759 181.811,290.580 181.520 C 290.442 181.297,289.985 180.931,289.564 180.706 C 289.016 180.413,288.871 180.411,289.050 180.702 M292.977 182.085 C 292.470 182.619,292.004 182.863,291.927 182.634 C 291.852 182.408,291.617 182.222,291.405 182.222 C 291.170 182.222,291.198 182.436,291.475 182.770 C 292.020 183.427,293.101 182.978,293.708 181.843 C 294.225 180.878,294.075 180.927,292.977 182.085 M250.784 183.025 C 250.760 183.365,250.645 183.948,250.528 184.322 C 250.326 184.965,250.337 184.966,250.738 184.340 C 250.970 183.977,251.086 183.394,250.994 183.044 C 250.843 182.470,250.822 182.469,250.784 183.025 M206.012 185.556 C 206.012 186.269,206.088 186.560,206.181 186.204 C 206.274 185.847,206.274 185.264,206.181 184.907 C 206.088 184.551,206.012 184.843,206.012 185.556 M187.911 188.519 C 187.911 190.454,187.974 191.245,188.050 190.278 C 188.126 189.310,188.126 187.727,188.050 186.759 C 187.974 185.792,187.911 186.583,187.911 188.519 M81.640 187.601 C 82.032 187.898,82.444 188.050,82.555 187.939 C 82.787 187.707,81.847 187.045,81.296 187.054 C 81.093 187.058,81.247 187.304,81.640 187.601 M206.037 188.889 C 206.037 190.009,206.106 190.468,206.191 189.907 C 206.276 189.347,206.276 188.431,206.191 187.870 C 206.106 187.310,206.037 187.769,206.037 188.889 M84.630 189.413 C 85.241 189.903,85.822 190.224,85.920 190.127 C 86.142 189.908,84.400 188.537,83.889 188.529 C 83.685 188.525,84.019 188.923,84.630 189.413 M365.411 189.815 C 365.716 191.177,365.928 191.472,365.920 190.525 C 365.917 190.134,365.745 189.565,365.539 189.259 C 365.264 188.854,365.230 189.003,365.411 189.815 M330.426 190.373 C 329.581 190.985,328.889 191.594,328.889 191.726 C 328.889 191.859,329.181 191.709,329.537 191.394 C 329.894 191.079,330.769 190.471,331.481 190.042 C 332.194 189.613,332.594 189.261,332.370 189.261 C 332.146 189.260,331.271 189.760,330.426 190.373 M343.805 190.741 C 344.323 191.148,344.868 191.481,345.016 191.481 C 345.164 191.481,344.861 191.148,344.343 190.741 C 343.825 190.333,343.280 190.000,343.132 190.000 C 342.984 190.000,343.287 190.333,343.805 190.741 M34.804 191.090 C 35.386 192.179,35.919 192.357,35.428 191.300 C 35.193 190.792,34.869 190.375,34.709 190.373 C 34.549 190.372,34.592 190.694,34.804 191.090 M206.041 193.148 C 206.043 194.370,206.112 194.826,206.194 194.160 C 206.277 193.494,206.275 192.494,206.191 191.938 C 206.106 191.381,206.039 191.926,206.041 193.148 M37.407 194.009 C 37.407 194.193,38.116 194.817,38.981 195.396 C 39.847 195.974,40.764 196.601,41.019 196.788 C 41.307 197.000,41.481 196.988,41.481 196.757 C 41.481 196.553,41.014 196.193,40.443 195.956 C 39.872 195.720,38.956 195.109,38.406 194.600 C 37.857 194.091,37.407 193.824,37.407 194.009 M90.740 196.569 C 91.148 197.329,91.481 198.191,91.481 198.482 C 91.481 198.774,91.589 198.905,91.720 198.774 C 92.036 198.458,90.777 195.185,90.339 195.185 C 90.152 195.185,90.332 195.808,90.740 196.569 M250.402 197.593 C 250.391 198.000,250.543 198.583,250.741 198.889 C 251.217 199.625,251.217 198.700,250.741 197.593 L 250.422 196.852 250.402 197.593 M325.185 200.370 C 324.955 201.226,324.839 201.999,324.927 202.088 C 325.016 202.176,325.268 201.540,325.488 200.673 C 325.708 199.807,325.824 199.034,325.746 198.956 C 325.668 198.878,325.416 199.514,325.185 200.370 M217.879 201.111 C 217.879 202.028,217.951 202.403,218.039 201.944 C 218.127 201.486,218.127 200.736,218.039 200.278 C 217.951 199.819,217.879 200.194,217.879 201.111 M58.981 200.996 C 59.338 201.089,59.921 201.089,60.278 200.996 C 60.634 200.903,60.343 200.827,59.630 200.827 C 58.917 200.827,58.625 200.903,58.981 200.996 M273.704 202.404 C 273.704 202.657,275.971 203.782,276.141 203.612 C 276.221 203.532,275.706 203.189,274.995 202.850 C 274.285 202.511,273.704 202.311,273.704 202.404 M187.864 204.074 C 187.864 204.787,187.940 205.079,188.033 204.722 C 188.126 204.366,188.126 203.782,188.033 203.426 C 187.940 203.069,187.864 203.361,187.864 204.074 M110.067 207.593 C 110.299 208.102,110.626 208.519,110.792 208.519 C 110.959 208.519,110.905 208.102,110.673 207.593 C 110.441 207.083,110.115 206.667,109.948 206.667 C 109.782 206.667,109.835 207.083,110.067 207.593 M222.870 207.663 C 222.514 207.756,222.222 207.992,222.222 208.188 C 222.222 208.394,222.576 208.361,223.056 208.111 C 224.445 207.388,224.393 207.265,222.870 207.663 M255.171 208.611 C 255.383 208.866,255.884 209.491,256.284 210.000 C 256.685 210.509,257.018 210.718,257.025 210.463 C 257.031 210.208,256.897 210.000,256.726 210.000 C 256.555 210.000,256.225 209.583,255.993 209.074 C 255.761 208.565,255.395 208.148,255.179 208.148 C 254.906 208.148,254.903 208.290,255.171 208.611 M111.743 210.916 C 112.289 212.030,112.799 212.880,112.876 212.803 C 113.110 212.569,111.412 208.889,111.070 208.889 C 110.893 208.889,111.196 209.801,111.743 210.916 M188.263 211.667 C 188.265 212.889,188.334 213.344,188.417 212.679 C 188.499 212.013,188.497 211.013,188.413 210.456 C 188.328 209.900,188.261 210.444,188.263 211.667 M218.519 210.719 C 218.519 210.986,218.278 211.098,217.963 210.977 C 217.657 210.860,217.407 210.925,217.407 211.123 C 217.407 211.320,217.648 211.481,217.941 211.481 C 218.545 211.481,219.078 210.807,218.741 210.469 C 218.619 210.347,218.519 210.459,218.519 210.719 M114.335 216.101 C 114.882 217.215,115.391 218.065,115.467 217.989 C 115.634 217.823,113.766 214.074,113.516 214.074 C 113.420 214.074,113.789 214.986,114.335 216.101 M261.481 215.000 C 262.172 215.509,262.829 215.920,262.942 215.913 C 263.286 215.890,260.952 214.078,260.576 214.076 C 260.384 214.075,260.791 214.491,261.481 215.000 M188.611 214.700 C 188.968 214.793,189.551 214.793,189.907 214.700 C 190.264 214.607,189.972 214.530,189.259 214.530 C 188.546 214.530,188.255 214.607,188.611 214.700 M193.611 214.706 C 194.069 214.794,194.819 214.794,195.278 214.706 C 195.736 214.618,195.361 214.545,194.444 214.545 C 193.528 214.545,193.153 214.618,193.611 214.706 M90.381 217.580 C 90.133 217.879,89.994 218.314,90.072 218.548 C 90.149 218.782,90.412 218.537,90.654 218.005 C 91.149 216.920,91.052 216.771,90.381 217.580 M269.074 219.055 C 269.685 219.333,270.255 219.493,270.340 219.410 C 270.585 219.170,270.266 219.009,269.074 218.771 L 267.963 218.549 269.074 219.055 M284.444 220.370 C 283.682 220.615,283.649 220.672,284.259 220.698 C 284.667 220.715,285.250 220.568,285.556 220.370 C 286.204 219.951,285.754 219.951,284.444 220.370 M84.074 224.815 C 83.604 225.222,83.386 225.556,83.590 225.556 C 83.793 225.556,84.261 225.222,84.630 224.815 C 84.998 224.407,85.216 224.074,85.114 224.074 C 85.012 224.074,84.544 224.407,84.074 224.815 M78.611 228.160 C 77.371 228.658,77.603 228.911,78.889 228.463 C 79.500 228.250,80.000 228.009,80.000 227.927 C 80.000 227.707,79.549 227.783,78.611 228.160 M69.259 231.325 L 67.593 231.837 69.074 231.630 C 69.889 231.517,70.714 231.270,70.907 231.082 C 71.320 230.682,71.388 230.672,69.259 231.325 " stroke="none" fill="#f47c2c" fill-rule="evenodd"></path><path id="path1" d="M161.834 210.370 C 153.412 211.705,144.899 219.361,143.491 226.867 C 143.295 227.911,143.084 228.148,142.351 228.148 C 138.993 228.148,115.269 231.983,100.926 234.845 C 78.267 239.366,58.350 244.764,37.870 251.936 L 32.593 253.785 32.593 261.152 C 32.593 265.203,32.652 268.519,32.725 268.519 C 32.799 268.519,34.654 267.852,36.848 267.038 C 63.019 257.330,97.272 249.147,133.704 243.901 C 145.611 242.187,144.716 242.118,146.287 244.861 C 151.665 254.250,165.382 258.182,175.254 253.165 C 176.540 252.511,185.509 247.548,195.185 242.136 L 212.778 232.296 213.183 235.135 C 216.310 257.016,246.459 262.769,255.762 243.261 C 256.226 242.288,256.572 242.000,257.170 242.091 C 257.606 242.158,261.213 242.636,265.185 243.154 C 301.924 247.940,345.764 258.176,368.148 267.193 C 368.879 267.487,368.765 252.976,368.033 252.517 C 367.135 251.955,348.461 245.885,341.481 243.887 C 318.510 237.312,289.126 231.434,263.183 228.226 L 258.032 227.589 257.374 225.651 C 254.105 216.035,245.763 210.000,235.741 210.000 C 229.382 210.000,230.049 209.704,206.111 223.129 C 185.999 234.408,188.148 233.397,188.148 231.580 C 188.148 218.949,174.929 208.294,161.834 210.370 M167.482 221.527 C 180.873 224.366,179.202 244.183,165.571 244.183 C 150.438 244.183,150.158 223.513,165.260 221.152 C 165.402 221.129,166.402 221.298,167.482 221.527 M239.738 221.855 C 245.846 224.140,248.879 231.281,246.213 237.103 C 242.017 246.268,229.215 246.189,225.214 236.974 C 221.265 227.878,230.405 218.363,239.738 221.855 " stroke="none" fill="#3c7434" fill-rule="evenodd"></path><path id="path2" d="M193.889 131.595 C 191.390 132.397,190.759 132.693,190.936 132.979 C 191.038 133.145,190.770 133.392,190.339 133.528 C 189.446 133.812,188.117 135.030,188.396 135.309 C 188.498 135.412,188.248 135.674,187.839 135.893 C 187.431 136.112,186.882 136.917,186.621 137.682 C 186.182 138.964,186.064 139.634,185.821 142.222 C 185.773 142.731,185.937 143.669,186.186 144.305 C 186.434 144.941,186.548 145.550,186.439 145.659 C 185.916 146.183,189.403 150.741,190.328 150.741 C 190.555 150.741,190.741 150.912,190.741 151.120 C 190.741 151.909,193.777 152.681,196.667 152.628 C 200.013 152.566,200.370 152.527,200.370 152.226 C 200.370 151.939,201.790 151.366,202.315 151.441 C 202.468 151.463,202.593 151.315,202.593 151.111 C 202.593 150.907,202.833 150.741,203.126 150.741 C 203.420 150.741,203.779 150.548,203.924 150.313 C 204.101 150.027,204.017 149.983,203.668 150.181 C 203.382 150.344,203.867 149.769,204.747 148.905 C 205.626 148.040,206.251 147.238,206.135 147.122 C 206.019 147.007,206.216 146.589,206.573 146.195 C 206.930 145.800,207.181 145.412,207.130 145.331 C 207.079 145.251,207.049 145.144,207.064 145.093 C 207.353 144.107,207.311 139.259,207.014 139.259 C 206.799 139.259,206.719 139.105,206.835 138.915 C 207.046 138.574,204.930 135.114,204.365 134.876 C 204.202 134.807,204.164 134.599,204.279 134.413 C 204.394 134.227,204.246 134.074,203.950 134.074 C 203.655 134.074,203.320 133.833,203.207 133.538 C 203.094 133.243,202.326 132.820,201.501 132.598 C 200.675 132.375,200.000 132.067,200.000 131.912 C 200.000 131.757,199.625 131.601,199.167 131.566 C 198.708 131.531,197.583 131.442,196.667 131.370 C 195.750 131.297,194.500 131.399,193.889 131.595 M198.700 135.550 C 198.828 135.757,199.256 135.926,199.651 135.926 C 200.047 135.926,200.370 136.093,200.370 136.296 C 200.370 136.500,200.628 136.667,200.944 136.667 C 201.259 136.667,201.729 137.169,201.987 137.784 C 202.245 138.398,202.579 138.779,202.729 138.629 C 202.879 138.479,202.892 138.642,202.758 138.993 C 202.609 139.379,202.690 139.630,202.963 139.630 C 203.210 139.630,203.317 139.879,203.199 140.185 C 203.082 140.491,203.133 140.741,203.312 140.741 C 204.929 140.741,202.441 146.456,200.289 147.685 C 196.376 149.919,190.412 148.114,190.052 144.586 C 189.701 141.147,189.939 139.364,190.883 138.345 C 191.416 137.770,191.852 137.157,191.852 136.983 C 191.852 136.809,192.081 136.667,192.362 136.667 C 192.643 136.667,193.078 136.419,193.330 136.115 C 193.582 135.812,193.924 135.648,194.090 135.751 C 194.257 135.854,194.481 135.795,194.589 135.621 C 194.872 135.164,198.424 135.102,198.700 135.550 M194.407 139.367 C 193.918 139.764,193.567 140.319,193.627 140.600 C 193.687 140.881,193.559 141.111,193.342 141.111 C 192.535 141.111,193.481 143.941,194.612 144.908 C 196.057 146.143,200.694 144.386,199.801 142.941 C 199.700 142.778,199.795 142.534,200.012 142.400 C 200.288 142.230,200.280 142.004,199.986 141.650 C 199.755 141.371,199.689 140.944,199.840 140.700 C 200.014 140.419,199.957 140.353,199.687 140.520 C 199.313 140.751,199.103 140.339,199.203 139.574 C 199.240 139.291,197.633 138.824,196.259 138.718 C 195.729 138.678,194.896 138.969,194.407 139.367 M235.833 141.376 C 235.273 141.461,234.815 141.658,234.815 141.815 C 234.815 141.971,234.440 142.068,233.981 142.031 C 233.523 141.994,233.065 142.088,232.963 142.239 C 232.861 142.391,231.923 142.599,230.878 142.702 C 229.833 142.805,228.647 143.066,228.242 143.283 C 227.836 143.500,227.424 143.596,227.324 143.497 C 227.225 143.398,226.078 143.592,224.776 143.928 C 223.473 144.264,221.949 144.559,221.389 144.584 C 220.829 144.609,220.354 144.796,220.333 145.000 C 220.313 145.204,220.229 146.954,220.146 148.889 C 219.934 153.888,219.742 157.562,219.681 157.778 C 219.613 158.021,215.680 157.898,215.261 157.639 C 215.082 157.529,214.454 157.568,213.863 157.726 L 212.790 158.013 212.694 162.247 C 212.642 164.576,212.556 168.221,212.503 170.348 L 212.407 174.214 215.370 174.290 C 217.000 174.331,218.523 174.383,218.755 174.405 C 219.043 174.432,219.124 175.238,219.011 176.944 C 218.920 178.319,218.775 181.444,218.690 183.889 C 218.355 193.473,217.815 206.172,217.632 208.802 C 217.496 210.747,217.942 211.662,218.554 210.696 C 218.732 210.415,218.880 210.347,218.883 210.545 C 218.886 210.743,219.148 210.535,219.465 210.082 C 219.783 209.630,220.251 209.259,220.507 209.259 C 220.762 209.259,221.303 208.950,221.708 208.573 C 222.114 208.195,223.353 207.590,224.463 207.227 C 225.573 206.865,226.673 206.418,226.907 206.233 C 227.623 205.668,228.926 205.473,232.582 205.383 L 236.089 205.296 236.189 201.444 C 236.425 192.348,236.857 181.607,237.156 177.407 C 237.206 176.694,237.365 175.922,237.508 175.692 C 237.745 175.309,242.578 175.305,247.068 175.684 L 248.396 175.796 248.431 172.620 C 248.485 167.741,248.776 160.246,248.933 159.661 C 249.072 159.146,245.701 158.832,239.815 158.810 L 237.963 158.804 238.054 156.532 C 238.193 153.073,238.549 144.850,238.645 142.870 C 238.739 140.950,238.719 140.939,235.833 141.376 M320.314 144.514 C 320.224 145.288,320.128 145.702,319.902 146.296 C 319.577 147.147,319.219 148.991,319.222 149.798 C 319.223 150.196,319.042 150.741,318.819 151.010 C 318.596 151.279,318.504 151.590,318.615 151.702 C 318.727 151.813,318.592 152.339,318.317 152.870 C 318.041 153.401,317.900 153.973,318.004 154.140 C 318.107 154.307,318.062 154.653,317.903 154.907 C 317.744 155.162,317.582 155.537,317.544 155.741 C 317.075 158.262,316.740 159.815,316.667 159.815 C 316.570 159.815,316.274 161.254,316.191 162.129 C 316.147 162.588,315.968 162.963,315.794 162.963 C 315.619 162.963,315.570 163.208,315.685 163.507 C 315.800 163.806,315.731 164.151,315.533 164.273 C 315.335 164.395,315.267 164.647,315.381 164.833 C 315.496 165.018,315.425 165.478,315.224 165.854 C 315.022 166.231,314.778 167.026,314.681 167.621 C 314.585 168.217,314.478 168.704,314.444 168.704 C 314.382 168.704,314.287 169.203,313.935 171.378 C 313.829 172.034,313.559 172.912,313.335 173.330 C 313.112 173.748,313.022 174.241,313.137 174.427 C 313.252 174.612,313.165 174.875,312.944 175.012 C 312.723 175.148,312.625 175.477,312.727 175.742 C 312.829 176.007,312.807 176.328,312.680 176.456 C 312.455 176.680,312.400 176.888,312.032 178.889 C 311.774 180.294,311.621 180.861,311.300 181.607 C 311.139 181.981,310.968 182.648,310.921 183.088 C 310.874 183.529,310.801 183.889,310.760 183.889 C 310.650 183.889,310.369 185.246,310.299 186.111 C 310.266 186.519,310.096 187.043,309.921 187.276 C 309.747 187.509,309.629 187.842,309.660 188.017 C 309.692 188.191,309.685 188.417,309.645 188.519 C 309.511 188.863,309.267 190.180,309.182 191.019 C 309.136 191.477,308.950 191.852,308.768 191.852 C 308.587 191.852,308.533 192.097,308.648 192.396 C 308.763 192.695,308.694 193.039,308.496 193.162 C 308.298 193.284,308.230 193.536,308.344 193.722 C 308.459 193.907,308.388 194.367,308.187 194.743 C 307.985 195.119,307.741 195.915,307.644 196.510 C 307.548 197.105,307.435 197.676,307.394 197.778 C 307.353 197.880,307.345 198.106,307.377 198.280 C 307.408 198.454,307.247 198.822,307.018 199.097 C 306.790 199.372,306.698 199.752,306.815 199.940 C 306.932 200.129,306.696 201.247,306.290 202.425 C 305.885 203.602,305.636 204.648,305.737 204.749 C 305.837 204.850,305.736 205.153,305.511 205.424 C 305.286 205.695,305.199 206.169,305.317 206.477 C 305.436 206.785,305.392 207.037,305.220 207.037 C 305.048 207.037,304.893 207.412,304.875 207.870 C 304.844 208.668,304.562 210.185,304.445 210.185 C 304.415 210.185,304.317 210.602,304.227 211.111 C 304.138 211.620,303.959 212.287,303.829 212.593 C 303.473 213.427,303.309 214.167,303.273 215.099 C 303.255 215.561,303.088 216.034,302.902 216.149 C 302.715 216.264,302.664 216.678,302.788 217.068 C 302.912 217.458,302.871 217.778,302.698 217.778 C 302.425 217.778,302.231 218.627,302.128 220.278 C 302.112 220.532,301.960 220.741,301.790 220.741 C 301.620 220.741,301.481 221.058,301.481 221.447 C 301.481 221.956,301.676 222.102,302.180 221.970 C 302.565 221.870,302.991 221.969,303.128 222.190 C 303.265 222.411,303.839 222.593,304.405 222.593 C 304.970 222.593,305.546 222.707,305.686 222.846 C 305.825 222.986,306.395 223.132,306.951 223.172 C 307.508 223.212,308.671 223.507,309.537 223.828 C 310.403 224.149,311.111 224.340,311.111 224.252 C 311.111 224.164,311.556 224.261,312.099 224.468 C 312.643 224.675,313.559 224.921,314.136 225.014 C 314.713 225.108,315.698 225.267,316.325 225.367 C 316.953 225.466,317.661 225.670,317.900 225.819 C 318.138 225.968,318.514 226.118,318.735 226.151 C 319.124 226.211,319.199 226.002,319.347 224.444 C 319.386 224.037,319.567 223.704,319.749 223.704 C 319.930 223.704,319.990 223.470,319.880 223.184 C 319.770 222.899,319.794 222.551,319.933 222.413 C 320.072 222.274,320.206 221.841,320.231 221.451 C 320.257 221.060,320.311 220.699,320.352 220.648 C 320.392 220.597,320.498 220.139,320.587 219.630 C 320.676 219.120,320.854 218.454,320.982 218.148 C 321.109 217.843,321.264 217.343,321.324 217.037 C 321.385 216.731,321.535 215.981,321.658 215.370 C 321.780 214.759,321.928 214.009,321.986 213.704 C 322.045 213.398,322.389 212.148,322.751 210.926 C 323.352 208.898,323.706 207.232,323.794 206.019 C 323.812 205.764,323.966 205.556,324.136 205.556 C 324.306 205.556,324.444 204.982,324.444 204.281 C 324.444 203.580,324.604 202.908,324.799 202.788 C 324.993 202.667,325.069 202.350,324.966 202.082 C 324.863 201.814,325.028 200.873,325.333 199.989 C 325.637 199.106,325.802 198.247,325.699 198.080 C 325.596 197.914,325.702 197.778,325.935 197.778 C 326.168 197.778,326.284 197.569,326.193 197.315 C 326.102 197.060,326.248 196.415,326.518 195.880 C 326.787 195.346,326.903 194.804,326.775 194.677 C 326.648 194.549,326.738 194.444,326.975 194.444 C 327.213 194.444,327.407 194.187,327.407 193.871 C 327.407 190.685,335.836 187.234,340.017 188.710 C 340.785 188.981,341.513 189.104,341.633 188.984 C 341.753 188.864,341.852 188.949,341.852 189.173 C 341.852 189.396,342.227 189.697,342.685 189.841 C 343.620 190.134,345.466 191.475,344.957 191.493 C 344.777 191.499,344.921 191.674,345.278 191.882 C 345.634 192.089,345.926 192.407,345.926 192.587 C 345.926 192.767,346.120 193.384,346.356 193.957 C 346.593 194.531,346.759 195.125,346.726 195.278 C 346.694 195.431,346.801 195.556,346.966 195.556 C 347.222 195.556,347.313 200.218,347.067 200.741 C 346.864 201.173,346.614 202.455,346.616 203.048 C 346.618 203.401,346.486 203.772,346.323 203.873 C 346.159 203.973,346.072 204.477,346.128 204.991 C 346.185 205.505,346.115 205.926,345.972 205.926 C 345.830 205.926,345.680 206.218,345.640 206.574 C 345.509 207.734,345.355 208.325,345.060 208.796 C 344.901 209.051,344.857 209.259,344.962 209.259 C 345.067 209.259,344.913 209.937,344.621 210.765 C 344.329 211.593,344.106 212.384,344.126 212.524 C 344.146 212.664,344.128 212.861,344.087 212.963 C 343.995 213.192,343.798 214.237,343.535 215.887 C 343.425 216.578,343.165 217.349,342.958 217.599 C 342.750 217.849,342.677 218.309,342.797 218.619 C 342.916 218.930,342.833 219.296,342.612 219.433 C 342.391 219.569,342.301 219.829,342.413 220.009 C 342.525 220.190,342.368 220.933,342.064 221.659 C 341.760 222.386,341.606 223.227,341.721 223.528 C 341.837 223.828,341.747 224.074,341.521 224.074 C 341.296 224.074,341.111 224.630,341.111 225.309 C 341.111 225.988,340.986 226.668,340.833 226.821 C 340.681 226.974,340.535 227.418,340.509 227.809 C 340.484 228.199,340.421 228.560,340.369 228.611 C 340.318 228.662,340.233 229.037,340.181 229.444 C 340.130 229.852,340.026 230.428,339.951 230.726 C 339.868 231.057,340.108 231.287,340.571 231.320 C 340.987 231.349,341.654 231.541,342.053 231.747 C 342.451 231.952,343.153 232.088,343.611 232.048 C 344.069 232.008,344.444 232.087,344.444 232.222 C 344.444 232.469,344.747 232.530,346.481 232.631 C 346.991 232.661,347.407 232.831,347.407 233.009 C 347.407 233.188,348.074 233.333,348.889 233.333 C 349.704 233.333,350.370 233.472,350.370 233.642 C 350.370 233.812,350.579 233.966,350.833 233.984 C 352.077 234.074,353.705 234.416,354.318 234.715 C 354.693 234.899,355.250 235.028,355.556 235.002 C 355.861 234.976,356.312 235.104,356.558 235.287 C 357.142 235.721,357.732 235.338,357.726 234.530 C 357.717 233.367,358.103 231.516,358.517 230.744 C 358.740 230.326,358.829 229.833,358.715 229.648 C 358.600 229.462,358.676 229.206,358.883 229.078 C 359.090 228.950,359.259 228.282,359.259 227.593 C 359.259 226.904,359.419 226.242,359.613 226.121 C 359.808 226.001,359.873 225.655,359.757 225.354 C 359.641 225.052,359.756 224.553,360.011 224.246 C 360.267 223.938,360.375 223.585,360.253 223.463 C 360.130 223.340,360.266 222.782,360.556 222.222 C 360.845 221.663,360.981 221.105,360.858 220.982 C 360.736 220.859,360.794 220.546,360.987 220.287 C 361.181 220.027,361.311 219.440,361.276 218.981 C 361.241 218.523,361.321 218.148,361.453 218.148 C 361.586 218.148,361.727 217.856,361.767 217.500 C 361.856 216.717,362.143 215.370,362.222 215.370 C 362.319 215.370,362.615 213.931,362.698 213.056 C 362.742 212.598,362.921 212.223,363.095 212.222 C 363.270 212.222,363.323 211.989,363.213 211.703 C 363.104 211.417,363.117 211.081,363.243 210.955 C 363.369 210.829,363.517 210.437,363.572 210.085 C 363.627 209.733,363.762 208.879,363.872 208.187 C 363.982 207.496,364.254 206.712,364.475 206.444 C 364.697 206.177,364.771 205.784,364.640 205.572 C 364.508 205.359,364.528 204.980,364.683 204.729 C 364.838 204.478,365.015 203.936,365.075 203.525 C 365.281 202.130,365.461 201.296,365.556 201.296 C 366.103 201.296,366.207 192.541,365.681 190.790 C 365.413 189.901,365.286 189.026,365.397 188.846 C 365.508 188.666,365.428 188.519,365.219 188.519 C 365.009 188.519,364.934 188.269,365.051 187.963 C 365.169 187.657,365.070 187.407,364.833 187.407 C 364.595 187.407,364.496 187.253,364.612 187.065 C 364.877 186.638,364.074 184.815,363.622 184.815 C 363.439 184.815,363.389 184.654,363.510 184.458 C 363.631 184.262,363.391 183.762,362.976 183.347 C 362.562 182.932,362.304 182.593,362.404 182.593 C 362.625 182.593,361.706 181.485,360.093 179.807 C 359.431 179.119,358.884 178.672,358.877 178.815 C 358.871 178.957,358.662 178.817,358.414 178.503 C 357.704 177.606,355.005 175.678,355.324 176.296 C 355.493 176.624,355.394 176.588,355.083 176.209 C 354.794 175.856,354.448 175.676,354.315 175.808 C 354.183 175.941,354.074 175.890,354.074 175.696 C 354.074 175.502,353.714 175.316,353.274 175.283 C 352.834 175.249,352.351 175.023,352.200 174.779 C 352.050 174.536,351.651 174.442,351.314 174.571 C 350.977 174.701,350.798 174.652,350.915 174.463 C 351.032 174.274,350.832 174.124,350.471 174.131 C 350.110 174.138,349.398 174.024,348.889 173.879 C 347.057 173.354,338.324 173.604,336.973 174.219 C 336.633 174.374,336.133 174.535,335.862 174.576 C 335.592 174.617,335.136 174.797,334.850 174.975 C 334.494 175.197,334.413 175.165,334.595 174.871 C 334.740 174.636,334.266 174.793,333.541 175.221 C 332.816 175.649,332.220 175.858,332.217 175.685 C 332.213 175.512,332.049 175.620,331.852 175.926 C 331.579 176.349,331.491 176.199,331.487 175.300 C 331.484 174.650,331.641 174.019,331.836 173.899 C 332.030 173.778,332.106 173.461,332.003 173.193 C 331.900 172.925,332.065 171.984,332.370 171.100 C 332.674 170.217,332.839 169.358,332.736 169.192 C 332.633 169.025,332.715 168.889,332.918 168.889 C 333.121 168.889,333.294 168.597,333.302 168.241 C 333.327 167.125,333.556 165.950,333.794 165.712 C 333.920 165.586,333.933 165.249,333.824 164.964 C 333.714 164.678,333.799 164.444,334.013 164.444 C 334.227 164.444,334.338 164.115,334.261 163.711 C 334.183 163.308,334.276 162.882,334.467 162.764 C 334.658 162.646,334.815 162.086,334.815 161.521 C 334.815 160.956,334.929 160.379,335.069 160.239 C 335.209 160.099,335.361 159.697,335.406 159.344 C 335.452 158.992,335.593 158.287,335.721 157.778 C 335.848 157.269,336.019 156.435,336.101 155.926 C 336.182 155.417,336.526 154.092,336.865 152.981 C 337.203 151.871,337.540 150.492,337.612 149.917 C 337.685 149.342,337.861 148.683,338.004 148.453 C 338.162 148.196,338.097 148.136,337.835 148.298 C 337.600 148.443,337.407 148.413,337.407 148.230 C 337.407 148.047,336.795 147.875,336.046 147.847 C 335.297 147.818,334.589 147.666,334.472 147.509 C 334.241 147.198,333.721 147.051,332.148 146.852 C 331.589 146.781,330.932 146.600,330.689 146.449 C 330.445 146.299,329.815 146.136,329.289 146.087 C 328.764 146.039,328.333 145.970,328.333 145.934 C 328.333 145.810,326.846 145.528,326.019 145.495 C 325.560 145.478,325.185 145.344,325.185 145.199 C 325.185 145.054,324.572 144.912,323.824 144.884 C 323.075 144.855,322.366 144.703,322.250 144.546 C 321.869 144.032,320.373 144.007,320.314 144.514 M60.733 154.201 C 60.627 154.309,59.460 154.509,58.140 154.644 C 54.745 154.993,54.337 155.057,53.629 155.356 C 53.282 155.502,52.854 155.532,52.676 155.422 C 52.499 155.313,51.893 155.462,51.330 155.755 C 50.767 156.047,49.778 156.360,49.134 156.450 C 47.433 156.688,45.134 157.603,45.448 157.917 C 45.597 158.066,45.432 158.077,45.081 157.943 C 44.715 157.803,44.444 157.873,44.444 158.109 C 44.444 158.334,44.132 158.519,43.749 158.519 C 43.367 158.519,42.846 158.769,42.593 159.074 C 42.339 159.380,41.902 159.630,41.621 159.630 C 41.341 159.630,41.111 159.785,41.111 159.975 C 41.111 160.165,40.788 160.423,40.393 160.548 C 39.999 160.674,38.540 161.879,37.153 163.227 C 35.765 164.575,34.880 165.559,35.185 165.414 C 35.491 165.269,35.366 165.429,34.907 165.769 C 34.449 166.109,34.074 166.709,34.074 167.104 C 34.074 167.499,33.925 167.729,33.743 167.617 C 33.386 167.396,33.002 168.150,32.722 169.622 C 32.626 170.127,32.398 170.632,32.217 170.744 C 32.035 170.857,31.880 171.277,31.874 171.678 C 31.851 173.049,31.728 173.704,31.494 173.704 C 31.256 173.704,31.351 181.574,31.601 182.593 C 32.250 185.235,32.735 186.711,33.009 186.880 C 33.187 186.990,33.333 187.404,33.333 187.800 C 33.333 188.195,33.500 188.519,33.704 188.519 C 33.907 188.519,34.074 188.857,34.074 189.271 C 34.074 189.685,34.324 190.119,34.630 190.236 C 34.935 190.354,35.185 190.650,35.185 190.896 C 35.185 191.141,35.560 191.744,36.019 192.236 C 36.477 192.728,36.852 193.260,36.852 193.417 C 36.852 193.575,37.019 193.736,37.222 193.776 C 37.426 193.815,37.926 194.163,38.333 194.548 C 38.741 194.933,39.574 195.507,40.185 195.824 C 40.796 196.141,41.419 196.585,41.568 196.811 C 41.718 197.037,41.843 197.085,41.846 196.918 C 41.849 196.750,42.288 196.956,42.821 197.375 C 43.355 197.795,43.926 198.054,44.092 197.952 C 44.258 197.849,44.493 197.928,44.616 198.126 C 44.738 198.324,45.083 198.392,45.382 198.278 C 45.681 198.163,45.926 198.263,45.926 198.501 C 45.926 198.738,46.081 198.837,46.271 198.720 C 46.460 198.602,46.716 198.669,46.838 198.867 C 46.961 199.065,47.308 199.132,47.609 199.016 C 47.911 198.901,48.405 199.012,48.708 199.263 C 49.011 199.515,49.259 199.596,49.259 199.444 C 49.259 199.293,49.492 199.361,49.776 199.597 C 50.060 199.833,50.435 199.988,50.609 199.942 C 50.783 199.896,51.509 199.998,52.222 200.168 C 52.935 200.339,54.519 200.516,55.741 200.563 C 56.963 200.610,57.963 200.680,57.963 200.719 C 57.963 200.796,64.071 201.113,65.517 201.112 C 66.005 201.111,66.589 201.242,66.813 201.403 C 67.038 201.563,67.722 201.742,68.333 201.801 C 71.275 202.082,75.439 207.261,73.625 208.382 C 73.464 208.481,73.333 208.886,73.333 209.281 C 73.333 209.677,73.157 210.000,72.941 210.000 C 72.725 210.000,72.625 210.125,72.717 210.278 C 72.810 210.431,72.653 210.770,72.369 211.033 C 72.084 211.296,71.852 211.395,71.852 211.254 C 71.852 211.113,71.543 211.354,71.166 211.788 C 70.789 212.223,70.372 212.471,70.240 212.339 C 70.108 212.207,70.000 212.311,70.000 212.570 C 70.000 212.830,69.761 212.950,69.468 212.838 C 69.176 212.726,68.884 212.793,68.819 212.987 C 68.754 213.182,68.313 213.415,67.840 213.507 C 67.366 213.598,66.678 213.768,66.311 213.884 C 64.126 214.578,56.296 214.726,56.296 214.074 C 56.296 213.957,55.813 213.824,55.222 213.779 C 54.630 213.734,53.684 213.457,53.118 213.164 C 52.553 212.871,51.943 212.722,51.762 212.833 C 51.582 212.944,51.112 212.743,50.717 212.386 C 50.323 212.029,49.997 211.888,49.994 212.072 C 49.991 212.257,49.859 212.203,49.700 211.954 C 49.456 211.569,48.517 211.251,47.293 211.139 C 47.128 211.123,47.096 210.944,47.222 210.741 C 47.348 210.537,47.124 210.370,46.725 210.370 C 46.251 210.370,45.864 210.756,45.611 211.481 C 45.398 212.093,45.039 212.593,44.812 212.593 C 44.586 212.593,44.492 212.740,44.604 212.921 C 44.715 213.102,44.558 213.455,44.255 213.707 C 43.952 213.959,43.704 214.372,43.704 214.625 C 43.704 214.878,43.376 215.502,42.975 216.012 C 42.574 216.521,42.352 217.043,42.481 217.173 C 42.610 217.302,42.522 217.407,42.284 217.407 C 42.046 217.407,41.852 217.657,41.852 217.963 C 41.852 218.269,41.705 218.519,41.525 218.519 C 41.345 218.519,41.121 218.810,41.028 219.167 C 40.728 220.313,40.609 220.543,39.941 221.260 C 39.580 221.647,39.361 222.087,39.453 222.236 C 39.546 222.386,39.390 222.701,39.106 222.936 C 38.823 223.171,38.488 223.774,38.363 224.274 C 38.237 224.775,37.971 225.185,37.771 225.185 C 37.571 225.185,37.407 225.362,37.407 225.577 C 37.407 225.793,37.574 225.867,37.778 225.741 C 37.981 225.615,38.148 225.688,38.148 225.904 C 38.148 226.120,38.491 226.296,38.911 226.296 C 39.330 226.296,39.570 226.463,39.444 226.667 C 39.319 226.870,39.547 227.037,39.952 227.037 C 40.357 227.037,40.950 227.299,41.270 227.619 C 41.590 227.939,41.852 228.080,41.852 227.932 C 41.852 227.784,42.157 227.939,42.530 228.277 C 42.903 228.614,43.320 228.779,43.456 228.643 C 43.592 228.507,43.704 228.562,43.704 228.765 C 43.704 228.969,43.954 229.164,44.259 229.198 C 44.565 229.231,45.065 229.287,45.370 229.321 C 45.676 229.355,45.926 229.531,45.926 229.713 C 45.926 229.895,46.093 229.941,46.296 229.815 C 46.500 229.689,46.667 229.744,46.667 229.937 C 46.667 230.231,47.558 230.512,49.815 230.930 C 50.019 230.967,50.269 231.045,50.370 231.102 C 50.472 231.159,50.889 231.256,51.296 231.317 C 51.704 231.379,52.454 231.539,52.963 231.673 C 54.689 232.129,57.211 232.308,60.741 232.223 C 62.676 232.177,64.884 232.146,65.648 232.154 C 66.412 232.162,67.037 232.014,67.037 231.825 C 67.037 231.636,67.162 231.513,67.315 231.551 C 67.468 231.589,68.343 231.476,69.259 231.300 C 70.176 231.123,71.260 230.953,71.668 230.922 C 72.075 230.891,72.784 230.664,73.242 230.419 C 73.699 230.174,74.077 230.105,74.080 230.265 C 74.083 230.425,74.223 230.339,74.391 230.074 C 74.559 229.809,75.098 229.567,75.589 229.536 C 76.080 229.505,76.565 229.380,76.667 229.258 C 76.945 228.923,79.497 227.778,79.963 227.778 C 80.187 227.778,80.370 227.631,80.370 227.452 C 80.370 227.273,80.878 226.917,81.498 226.660 C 82.117 226.403,83.135 225.716,83.759 225.134 C 84.383 224.551,85.017 224.074,85.169 224.074 C 85.321 224.074,85.969 223.574,86.608 222.963 C 87.248 222.352,87.652 221.852,87.507 221.852 C 87.361 221.852,87.613 221.592,88.066 221.275 C 88.518 220.958,88.889 220.453,88.889 220.153 C 88.889 219.852,89.139 219.510,89.444 219.393 C 89.750 219.276,90.000 218.919,90.000 218.601 C 90.000 218.282,90.283 217.709,90.629 217.326 C 90.975 216.944,91.297 216.431,91.345 216.186 C 91.394 215.941,91.756 214.907,92.150 213.889 C 92.545 212.870,92.821 211.745,92.763 211.389 C 92.705 211.032,92.768 210.741,92.903 210.741 C 93.118 210.741,93.182 203.811,92.971 203.333 C 92.900 203.171,92.703 201.904,92.526 200.463 C 92.495 200.208,92.312 200.000,92.121 200.000 C 91.929 200.000,91.869 199.750,91.986 199.444 C 92.103 199.139,92.038 198.889,91.840 198.889 C 91.643 198.889,91.481 198.678,91.481 198.420 C 91.481 198.163,91.158 197.348,90.762 196.609 C 90.366 195.871,90.140 195.169,90.259 195.049 C 90.379 194.930,90.203 194.728,89.870 194.600 C 89.536 194.472,89.356 194.218,89.468 194.035 C 89.581 193.853,89.469 193.704,89.219 193.704 C 88.970 193.704,88.872 193.597,89.003 193.466 C 89.274 193.196,86.231 189.997,85.899 190.202 C 85.780 190.276,85.128 189.829,84.449 189.209 C 83.771 188.590,82.918 188.026,82.553 187.955 C 82.188 187.885,81.397 187.463,80.795 187.018 C 80.193 186.573,79.518 186.322,79.294 186.460 C 79.071 186.598,78.889 186.539,78.889 186.330 C 78.889 186.120,78.639 186.045,78.333 186.162 C 78.028 186.280,77.778 186.181,77.778 185.944 C 77.778 185.706,77.604 185.619,77.391 185.751 C 77.179 185.882,76.769 185.794,76.481 185.556 C 76.194 185.317,75.784 185.229,75.572 185.360 C 75.359 185.492,75.185 185.403,75.185 185.164 C 75.185 184.911,74.875 184.810,74.445 184.922 C 74.038 185.029,73.604 184.953,73.481 184.755 C 73.359 184.556,73.010 184.489,72.707 184.606 C 72.404 184.722,71.962 184.695,71.726 184.545 C 71.490 184.395,70.880 184.237,70.370 184.192 C 68.402 184.021,66.111 183.751,66.111 183.691 C 66.111 183.656,65.278 183.568,64.259 183.496 C 61.000 183.264,58.369 182.992,57.037 182.748 C 56.324 182.617,55.298 182.488,54.757 182.460 C 54.216 182.433,53.832 182.315,53.904 182.198 C 53.976 182.082,53.502 181.793,52.851 181.557 C 50.703 180.779,49.697 177.529,51.129 175.992 C 51.543 175.548,51.749 175.179,51.589 175.170 C 51.428 175.162,51.755 174.907,52.315 174.603 C 52.875 174.299,53.333 173.879,53.333 173.670 C 53.333 173.461,53.500 173.393,53.704 173.519 C 53.907 173.644,54.074 173.599,54.074 173.417 C 54.074 173.235,54.282 173.066,54.537 173.040 C 54.792 173.014,55.750 172.807,56.667 172.578 C 59.065 171.981,66.484 172.007,67.239 172.616 C 67.452 172.788,67.952 172.910,68.350 172.887 C 68.748 172.864,69.702 173.115,70.470 173.444 C 71.237 173.773,71.904 174.021,71.951 173.995 C 71.998 173.970,72.388 174.137,72.818 174.367 C 73.713 174.846,74.612 173.591,74.769 171.645 C 74.794 171.327,74.947 171.149,75.108 171.249 C 75.270 171.349,75.426 171.102,75.457 170.702 C 75.487 170.301,75.895 169.354,76.365 168.598 C 77.239 167.188,77.282 167.081,77.361 166.089 C 77.387 165.772,77.578 165.617,77.787 165.746 C 77.996 165.875,78.143 165.844,78.113 165.676 C 77.979 164.904,78.212 164.161,78.965 162.963 C 79.822 161.599,79.880 161.458,79.954 160.534 C 79.979 160.216,80.132 160.038,80.293 160.138 C 80.455 160.237,80.610 160.016,80.638 159.645 C 80.675 159.148,80.260 158.850,79.055 158.513 C 78.111 158.249,77.520 157.895,77.657 157.674 C 77.786 157.465,77.730 157.394,77.531 157.516 C 77.332 157.639,76.723 157.508,76.177 157.225 C 75.632 156.942,75.183 156.826,75.180 156.966 C 75.176 157.107,75.029 156.993,74.851 156.713 C 74.674 156.433,74.093 156.204,73.561 156.204 C 73.028 156.204,72.593 156.030,72.593 155.818 C 72.593 155.606,72.497 155.528,72.380 155.645 C 72.262 155.762,71.637 155.704,70.991 155.515 C 70.344 155.325,68.981 155.078,67.963 154.964 C 65.890 154.732,65.006 154.615,62.593 154.253 C 61.676 154.116,60.839 154.092,60.733 154.201 M179.477 156.572 C 179.304 156.745,177.008 157.013,174.259 157.180 C 173.241 157.242,172.324 157.340,172.222 157.399 C 172.120 157.458,171.287 157.557,170.370 157.619 C 169.454 157.681,167.620 157.843,166.296 157.978 C 164.972 158.113,163.357 158.253,162.706 158.289 C 161.182 158.372,161.216 158.321,160.938 160.926 C 160.808 162.148,160.553 163.201,160.371 163.265 C 160.190 163.329,160.134 163.623,160.247 163.918 C 160.361 164.213,160.298 164.660,160.109 164.912 C 159.919 165.164,159.734 165.844,159.698 166.423 C 159.662 167.002,159.371 168.483,159.052 169.716 C 158.733 170.948,158.397 172.474,158.307 173.107 C 158.074 174.745,157.950 175.228,157.442 176.470 C 157.195 177.076,157.071 177.867,157.166 178.229 C 157.260 178.592,157.194 178.977,157.018 179.086 C 156.843 179.194,156.786 179.511,156.893 179.789 C 157.000 180.068,156.925 180.396,156.727 180.518 C 156.528 180.641,156.453 181.075,156.559 181.482 C 156.666 181.889,156.572 182.222,156.351 182.222 C 156.130 182.222,156.046 182.474,156.164 182.782 C 156.282 183.091,156.224 183.549,156.035 183.801 C 155.845 184.053,155.660 184.733,155.624 185.312 C 155.588 185.891,155.297 187.374,154.977 188.609 C 154.657 189.843,154.338 191.286,154.269 191.815 C 153.868 194.881,153.201 195.608,152.537 193.704 C 152.324 193.093,151.999 192.593,151.816 192.593 C 151.632 192.593,151.481 192.291,151.481 191.923 C 151.481 191.554,151.237 190.929,150.938 190.534 C 150.639 190.138,150.389 189.544,150.382 189.212 C 150.376 188.880,150.120 188.402,149.815 188.148 C 149.509 187.895,149.259 187.355,149.259 186.949 C 149.259 186.183,147.432 182.501,146.944 182.284 C 146.792 182.216,146.667 181.881,146.667 181.540 C 146.667 181.199,146.257 180.150,145.756 179.210 C 145.256 178.269,144.964 177.369,145.108 177.209 C 145.252 177.049,145.180 177.027,144.946 177.161 C 144.713 177.294,144.426 177.154,144.310 176.850 C 144.193 176.545,144.223 176.296,144.377 176.296 C 144.530 176.296,144.675 176.005,144.699 175.648 C 144.747 174.923,145.070 173.252,145.433 171.852 C 145.565 171.343,145.705 170.759,145.743 170.556 C 145.782 170.352,145.859 170.060,145.916 169.907 C 145.972 169.755,146.060 169.463,146.111 169.259 C 146.162 169.056,146.237 168.847,146.278 168.796 C 146.419 168.622,146.704 167.221,146.919 165.648 C 147.037 164.782,147.296 164.074,147.495 164.074 C 147.694 164.074,147.767 163.840,147.658 163.555 C 147.548 163.269,147.561 162.932,147.687 162.806 C 147.813 162.681,147.959 162.289,148.010 161.937 C 148.062 161.585,148.156 160.963,148.219 160.556 C 148.305 159.997,148.151 159.842,147.593 159.925 C 145.892 160.177,143.412 160.390,141.852 160.417 C 140.935 160.433,140.019 160.554,139.815 160.686 C 139.611 160.817,138.778 160.963,137.963 161.009 C 137.148 161.055,135.648 161.181,134.630 161.289 C 133.611 161.396,131.944 161.527,130.926 161.580 C 129.090 161.675,129.074 161.686,129.009 162.967 C 128.974 163.678,128.824 164.759,128.677 165.370 C 128.529 165.981,128.414 166.940,128.420 167.500 C 128.427 168.060,128.326 168.519,128.197 168.519 C 128.068 168.519,127.950 168.977,127.933 169.537 C 127.917 170.097,127.780 171.139,127.629 171.852 C 127.379 173.036,127.050 175.512,126.927 177.130 C 126.900 177.486,126.742 177.778,126.576 177.778 C 126.409 177.778,126.293 178.319,126.318 178.981 C 126.343 179.644,126.261 180.602,126.135 181.111 C 126.009 181.620,125.831 182.704,125.738 183.519 C 125.645 184.333,125.477 185.500,125.363 186.111 C 125.250 186.722,125.124 187.764,125.083 188.426 C 125.042 189.088,124.902 189.630,124.772 189.630 C 124.642 189.630,124.578 190.132,124.630 190.747 C 124.682 191.361,124.593 191.945,124.432 192.044 C 124.271 192.144,124.185 192.641,124.241 193.150 C 124.297 193.658,124.241 194.074,124.116 194.074 C 123.991 194.074,123.869 194.449,123.845 194.907 C 123.739 196.884,123.513 197.772,123.073 197.941 C 122.813 198.040,122.635 198.002,122.676 197.857 C 122.717 197.712,122.554 197.240,122.314 196.808 C 122.074 196.376,121.983 195.918,122.112 195.789 C 122.240 195.661,122.172 195.556,121.960 195.556 C 121.635 195.556,121.078 193.860,121.152 193.095 C 121.164 192.966,120.998 192.751,120.782 192.618 C 120.566 192.484,120.339 192.047,120.278 191.646 C 120.217 191.245,119.807 190.227,119.368 189.384 C 118.928 188.541,118.668 187.751,118.790 187.629 C 118.913 187.507,118.808 187.407,118.558 187.407 C 118.309 187.407,118.208 187.240,118.335 187.035 C 118.462 186.829,118.236 186.199,117.833 185.633 C 117.430 185.067,116.985 183.987,116.843 183.231 C 116.701 182.476,116.437 181.950,116.256 182.062 C 116.074 182.174,115.926 181.933,115.926 181.525 C 115.926 181.118,115.757 180.680,115.550 180.552 C 115.342 180.424,115.269 180.164,115.386 179.974 C 115.503 179.785,115.405 179.630,115.167 179.630 C 114.930 179.630,114.827 179.392,114.938 179.101 C 115.050 178.810,114.899 178.372,114.603 178.126 C 114.307 177.880,114.100 177.493,114.144 177.265 C 114.189 177.038,113.947 176.331,113.609 175.695 C 113.270 175.059,113.097 174.434,113.225 174.306 C 113.352 174.179,113.253 174.074,113.003 174.074 C 112.753 174.074,112.645 173.919,112.762 173.729 C 112.879 173.540,112.803 173.278,112.593 173.148 C 112.382 173.018,112.298 172.770,112.405 172.597 C 112.512 172.424,112.337 172.020,112.017 171.699 C 111.696 171.379,111.526 170.968,111.639 170.786 C 111.752 170.603,111.597 170.250,111.296 170.000 C 110.995 169.750,110.840 169.398,110.952 169.217 C 111.063 169.037,110.978 168.889,110.763 168.889 C 110.547 168.889,110.370 168.623,110.370 168.298 C 110.370 167.973,110.131 167.265,109.839 166.724 C 109.547 166.183,109.212 165.288,109.095 164.735 C 108.973 164.161,108.685 163.795,108.422 163.883 C 108.170 163.967,107.046 164.132,105.926 164.250 C 104.806 164.367,103.222 164.543,102.407 164.641 C 100.409 164.881,97.650 165.168,95.185 165.393 C 94.065 165.495,92.565 165.644,91.852 165.724 C 91.139 165.804,90.268 165.882,89.916 165.898 C 89.369 165.922,89.436 166.178,90.367 167.647 C 90.967 168.593,91.370 169.510,91.263 169.684 C 91.155 169.858,91.254 170.000,91.481 170.000 C 91.709 170.000,91.793 170.167,91.667 170.370 C 91.541 170.574,91.624 170.741,91.852 170.741 C 92.080 170.741,92.163 170.907,92.037 171.111 C 91.911 171.315,91.994 171.481,92.222 171.481 C 92.450 171.481,92.533 171.648,92.407 171.852 C 92.282 172.056,92.365 172.222,92.593 172.222 C 92.820 172.222,92.904 172.389,92.778 172.593 C 92.652 172.796,92.735 172.963,92.963 172.963 C 93.191 172.963,93.274 173.130,93.148 173.333 C 93.022 173.537,93.106 173.704,93.333 173.704 C 93.561 173.704,93.644 173.870,93.519 174.074 C 93.393 174.278,93.443 174.444,93.631 174.444 C 93.935 174.444,94.539 175.683,96.562 180.463 C 96.885 181.227,97.301 181.852,97.486 181.852 C 97.670 181.852,97.718 182.019,97.593 182.222 C 97.467 182.426,97.550 182.593,97.778 182.593 C 98.006 182.593,98.089 182.759,97.963 182.963 C 97.837 183.167,97.920 183.333,98.148 183.333 C 98.376 183.333,98.459 183.500,98.333 183.704 C 98.207 183.907,98.291 184.074,98.519 184.074 C 98.746 184.074,98.830 184.241,98.704 184.444 C 98.578 184.648,98.661 184.815,98.889 184.815 C 99.117 184.815,99.200 184.981,99.074 185.185 C 98.948 185.389,99.032 185.556,99.259 185.556 C 99.487 185.556,99.570 185.722,99.444 185.926 C 99.319 186.130,99.402 186.296,99.630 186.296 C 99.857 186.296,99.941 186.463,99.815 186.667 C 99.689 186.870,99.762 187.037,99.978 187.037 C 100.194 187.037,100.329 187.185,100.278 187.365 C 100.109 187.965,106.806 201.069,107.167 200.846 C 107.362 200.725,107.407 200.812,107.266 201.040 C 106.959 201.537,108.738 205.185,109.287 205.185 C 109.500 205.185,109.570 205.352,109.444 205.556 C 109.319 205.759,109.402 205.926,109.630 205.926 C 109.857 205.926,109.941 206.093,109.815 206.296 C 109.689 206.500,109.751 206.667,109.953 206.667 C 110.322 206.667,110.952 208.090,110.814 208.611 C 110.774 208.764,110.887 208.889,111.066 208.889 C 111.244 208.889,111.755 209.764,112.201 210.833 C 113.824 214.724,116.821 220.319,117.168 220.104 C 117.364 219.983,118.289 219.829,119.225 219.762 C 121.473 219.599,125.053 219.260,126.667 219.056 C 129.555 218.691,131.738 218.481,133.042 218.444 C 133.799 218.422,134.326 218.256,134.214 218.075 C 134.102 217.894,134.197 217.520,134.426 217.245 C 134.654 216.970,134.815 216.602,134.784 216.428 C 134.753 216.254,134.761 216.028,134.802 215.926 C 134.875 215.744,134.985 215.169,135.295 213.333 C 135.381 212.824,135.729 211.491,136.067 210.370 C 136.405 209.250,136.678 208.292,136.674 208.241 C 136.670 208.190,136.686 208.023,136.709 207.870 C 136.733 207.718,136.722 207.301,136.686 206.944 C 136.650 206.588,136.807 206.296,137.036 206.296 C 137.264 206.296,137.350 206.133,137.227 205.934 C 137.104 205.734,137.164 205.270,137.361 204.902 C 137.557 204.535,137.800 203.656,137.899 202.950 C 137.999 202.244,138.116 201.625,138.161 201.574 C 138.205 201.523,138.282 201.315,138.333 201.111 C 138.384 200.907,138.460 200.699,138.501 200.648 C 138.664 200.445,138.942 199.036,138.939 198.426 C 138.932 197.272,139.483 197.735,140.370 199.630 C 140.847 200.648,141.386 201.481,141.567 201.481 C 141.748 201.481,141.793 201.648,141.667 201.852 C 141.541 202.056,141.624 202.222,141.852 202.222 C 142.080 202.222,142.163 202.389,142.037 202.593 C 141.911 202.796,142.012 202.963,142.262 202.963 C 142.512 202.963,142.610 203.069,142.481 203.198 C 142.352 203.327,142.572 203.846,142.970 204.352 C 143.368 204.858,143.603 205.419,143.492 205.599 C 143.381 205.779,143.476 205.926,143.704 205.926 C 143.931 205.926,144.015 206.093,143.889 206.296 C 143.763 206.500,143.796 206.667,143.962 206.667 C 144.128 206.667,144.490 207.208,144.768 207.870 C 145.045 208.532,145.654 209.869,146.121 210.840 L 146.971 212.605 148.393 211.229 C 149.175 210.472,149.953 209.844,150.122 209.834 C 150.292 209.823,150.626 209.565,150.865 209.259 C 151.103 208.954,151.548 208.648,151.852 208.581 C 152.156 208.513,152.633 208.268,152.912 208.037 C 153.829 207.276,156.989 206.285,160.370 205.697 C 161.644 205.476,165.560 205.477,166.570 205.699 C 167.402 205.883,168.468 205.152,168.575 204.325 C 168.675 203.549,168.771 203.159,169.000 202.593 C 169.123 202.287,169.302 201.537,169.398 200.926 C 169.493 200.315,169.833 198.981,170.152 197.963 C 170.471 196.944,170.735 195.736,170.737 195.278 C 170.739 194.819,170.872 194.444,171.032 194.444 C 171.193 194.444,171.357 194.153,171.397 193.796 C 171.527 192.646,171.682 192.047,171.965 191.592 C 172.118 191.348,172.266 190.556,172.293 189.833 C 172.320 189.110,172.477 188.519,172.641 188.519 C 172.805 188.519,172.844 188.269,172.727 187.963 C 172.609 187.657,172.662 187.407,172.844 187.407 C 173.026 187.407,173.210 187.074,173.254 186.667 C 173.298 186.259,173.369 185.593,173.413 185.185 C 173.456 184.778,173.613 184.444,173.762 184.444 C 173.910 184.444,173.967 184.111,173.889 183.704 C 173.810 183.296,173.923 182.963,174.139 182.963 C 174.354 182.963,174.444 182.630,174.337 182.223 C 174.231 181.815,174.297 181.387,174.485 181.271 C 174.673 181.155,174.738 180.916,174.630 180.741 C 174.521 180.565,174.604 180.315,174.815 180.185 C 175.025 180.055,175.108 179.805,175.000 179.630 C 174.892 179.454,174.965 179.210,175.163 179.088 C 175.361 178.965,175.429 178.618,175.313 178.317 C 175.197 178.015,175.286 177.547,175.511 177.276 C 175.736 177.005,175.801 176.665,175.656 176.520 C 175.511 176.375,175.600 176.128,175.854 175.970 C 176.108 175.813,176.418 174.822,176.543 173.768 C 176.668 172.714,176.872 171.851,176.996 171.850 C 177.120 171.849,177.254 171.240,177.292 170.497 C 177.331 169.754,177.514 169.046,177.698 168.925 C 177.883 168.803,178.145 167.870,178.281 166.852 C 178.417 165.833,178.694 164.944,178.896 164.876 C 179.098 164.807,179.181 164.617,179.079 164.452 C 178.977 164.287,179.121 163.593,179.399 162.910 C 179.677 162.226,179.831 161.468,179.743 161.224 C 179.654 160.981,179.746 160.475,179.946 160.101 C 180.978 158.173,180.614 155.436,179.477 156.572 M205.503 157.583 C 205.407 157.680,201.307 157.793,196.392 157.835 L 187.457 157.912 187.629 163.308 C 187.723 166.276,187.901 177.870,188.025 189.074 C 188.148 200.278,188.268 210.558,188.291 211.919 L 188.333 214.394 190.443 214.638 C 191.604 214.773,192.702 214.791,192.884 214.678 C 193.066 214.566,196.217 214.446,199.885 214.413 L 206.555 214.353 206.417 213.380 C 206.254 212.237,205.831 174.445,205.868 164.352 C 205.881 160.532,205.845 157.407,205.786 157.407 C 205.727 157.407,205.600 157.486,205.503 157.583 M276.222 161.305 C 276.161 161.364,275.611 161.508,275.000 161.625 C 274.389 161.742,273.139 162.014,272.222 162.230 C 271.306 162.446,270.347 162.644,270.093 162.670 C 269.838 162.695,269.630 162.865,269.630 163.047 C 269.630 163.228,269.474 163.281,269.285 163.164 C 269.095 163.047,268.835 163.120,268.707 163.327 C 268.579 163.534,268.058 163.704,267.549 163.704 C 267.026 163.704,266.723 163.865,266.852 164.074 C 266.978 164.278,266.821 164.465,266.503 164.491 C 265.614 164.562,265.438 164.619,264.444 165.159 C 262.113 166.426,255.926 172.431,255.926 173.427 C 255.926 173.603,255.759 173.644,255.556 173.519 C 255.352 173.393,255.185 173.615,255.185 174.013 C 255.185 174.410,254.925 174.836,254.606 174.958 C 254.288 175.080,254.118 175.327,254.229 175.507 C 254.340 175.686,253.945 176.504,253.351 177.324 C 252.757 178.144,252.370 178.914,252.491 179.035 C 252.612 179.156,252.434 179.561,252.096 179.935 C 251.757 180.309,251.587 180.723,251.719 180.854 C 251.850 180.986,251.788 181.306,251.581 181.565 C 251.153 182.101,250.699 184.217,250.168 188.148 C 249.738 191.328,249.976 195.274,250.735 197.576 C 250.971 198.290,251.059 199.044,250.930 199.252 C 250.802 199.460,250.883 199.630,251.111 199.630 C 251.339 199.630,251.421 199.798,251.293 200.005 C 251.166 200.211,251.336 200.919,251.671 201.579 C 252.007 202.238,252.346 203.092,252.425 203.477 C 252.505 203.861,252.825 204.458,253.137 204.803 C 253.450 205.148,253.620 205.516,253.516 205.620 C 253.411 205.724,253.736 206.253,254.238 206.794 C 254.739 207.335,255.074 207.778,254.982 207.778 C 254.890 207.778,255.106 208.099,255.463 208.492 C 256.527 209.665,257.037 210.327,257.037 210.538 C 257.037 210.891,260.316 214.074,260.680 214.074 C 260.874 214.074,261.545 214.552,262.170 215.136 C 262.796 215.721,263.397 216.110,263.506 216.001 C 263.615 215.892,263.704 215.961,263.704 216.155 C 263.704 216.348,264.228 216.817,264.870 217.196 C 265.638 217.649,265.928 217.711,265.721 217.375 C 265.548 217.095,265.861 217.224,266.418 217.661 C 266.974 218.099,268.091 218.569,268.900 218.706 C 269.709 218.842,270.370 219.070,270.370 219.212 C 270.370 219.355,270.704 219.503,271.111 219.541 C 272.724 219.695,272.963 219.765,272.963 220.087 C 272.963 220.270,273.304 220.312,273.721 220.180 C 274.139 220.047,274.680 220.097,274.925 220.290 C 275.840 221.013,288.059 220.356,288.560 219.557 C 288.685 219.359,288.893 219.210,289.023 219.228 C 289.153 219.245,289.301 219.247,289.352 219.231 C 289.403 219.215,289.778 219.143,290.185 219.069 C 291.711 218.795,293.704 218.018,293.704 217.697 C 293.704 217.514,293.872 217.467,294.077 217.594 C 294.282 217.721,294.549 217.565,294.671 217.248 C 294.793 216.931,295.037 216.760,295.214 216.870 C 295.391 216.979,295.820 216.737,296.167 216.331 C 296.515 215.925,296.936 215.678,297.103 215.782 C 297.757 216.186,297.354 215.028,296.292 213.455 C 295.679 212.547,295.344 211.906,295.548 212.032 C 295.762 212.164,295.825 212.019,295.697 211.686 C 295.576 211.370,295.318 211.111,295.124 211.111 C 294.930 211.111,294.860 210.967,294.969 210.790 C 295.078 210.614,294.838 210.171,294.436 209.807 C 294.033 209.443,293.704 208.862,293.704 208.517 C 293.704 208.171,293.215 207.214,292.617 206.389 C 292.020 205.564,291.630 204.790,291.751 204.669 C 291.872 204.548,291.703 204.153,291.375 203.791 C 291.048 203.429,290.635 202.742,290.459 202.265 C 290.179 201.508,290.069 201.465,289.602 201.932 C 289.308 202.226,288.861 202.398,288.608 202.314 C 288.355 202.229,288.148 202.351,288.148 202.584 C 288.148 202.816,287.995 202.912,287.808 202.796 C 287.620 202.680,287.245 202.802,286.974 203.066 C 286.703 203.329,286.080 203.573,285.589 203.606 C 285.098 203.639,284.598 203.804,284.478 203.971 C 284.358 204.138,283.843 204.305,283.333 204.340 C 282.824 204.376,282.074 204.432,281.667 204.465 C 278.966 204.684,273.704 203.215,273.704 202.243 C 273.704 202.028,273.579 201.872,273.426 201.896 C 272.770 201.999,272.117 201.833,272.333 201.618 C 272.461 201.489,272.031 200.883,271.376 200.272 C 270.721 199.660,270.185 199.021,270.185 198.851 C 270.185 198.681,269.882 198.188,269.511 197.756 C 269.141 197.323,268.814 196.651,268.784 196.262 C 268.755 195.874,268.581 195.556,268.397 195.556 C 268.212 195.556,268.149 195.222,268.255 194.815 C 268.362 194.408,268.318 193.994,268.157 193.894 C 267.240 193.328,268.746 185.025,269.891 184.329 C 270.163 184.164,270.294 183.880,270.183 183.700 C 270.071 183.519,270.322 183.187,270.741 182.963 C 271.160 182.739,271.409 182.404,271.295 182.219 C 271.180 182.035,271.582 181.627,272.188 181.314 C 272.793 181.001,273.548 180.374,273.866 179.920 C 274.184 179.466,274.444 179.212,274.444 179.356 C 274.444 179.500,275.108 179.272,275.919 178.849 C 278.031 177.748,284.725 177.703,285.622 178.784 C 285.839 179.045,286.225 179.259,286.480 179.259 C 287.212 179.259,290.410 181.154,290.625 181.715 C 290.732 181.994,290.992 182.222,291.202 182.222 C 291.413 182.222,291.824 182.514,292.116 182.870 C 292.408 183.227,292.557 183.335,292.447 183.110 C 292.336 182.885,292.824 182.220,293.530 181.631 C 294.237 181.042,294.815 180.380,294.815 180.161 C 294.815 179.941,295.474 179.209,296.279 178.533 C 297.084 177.857,297.709 177.176,297.668 177.019 C 297.627 176.862,298.176 176.208,298.889 175.566 C 299.602 174.924,300.185 174.252,300.185 174.074 C 300.185 173.896,300.769 173.218,301.481 172.569 C 302.348 171.780,302.616 171.329,302.291 171.210 C 302.023 171.113,301.648 170.624,301.458 170.124 C 301.268 169.624,300.946 169.318,300.741 169.444 C 300.537 169.570,300.370 169.425,300.370 169.121 C 300.370 168.817,300.052 168.468,299.664 168.344 C 299.275 168.221,298.864 167.876,298.750 167.578 C 298.635 167.281,298.287 167.037,297.975 167.037 C 297.663 167.037,297.407 166.897,297.407 166.726 C 297.407 166.421,295.422 165.365,295.317 165.614 C 295.287 165.684,294.954 165.476,294.576 165.152 C 293.717 164.416,289.605 162.756,288.981 162.894 C 288.727 162.950,288.519 162.802,288.519 162.566 C 288.519 162.318,288.204 162.218,287.778 162.330 C 287.370 162.436,287.037 162.354,287.037 162.147 C 287.037 161.931,286.643 161.870,286.111 162.004 C 285.602 162.132,285.185 162.078,285.185 161.883 C 285.185 161.689,284.760 161.608,284.241 161.702 C 283.722 161.796,283.102 161.753,282.865 161.606 C 282.454 161.352,276.455 161.081,276.222 161.305 " stroke="none" fill="#ec812c" fill-rule="evenodd"></path><path id="path3" d="" stroke="none" fill="#f4842c" fill-rule="evenodd"></path><path id="path4" d="" stroke="none" fill="#687c30" fill-rule="evenodd"></path></g></svg>