<?xml version="1.0" standalone="no"?>
<!DOCTYPE svg PUBLIC "-//W3C//DTD SVG 20010904//EN"
 "http://www.w3.org/TR/2001/REC-SVG-20010904/DTD/svg10.dtd">
<svg version="1.0" xmlns="http://www.w3.org/2000/svg"
 width="713.000000pt" height="713.000000pt" viewBox="0 0 713.000000 713.000000"
 preserveAspectRatio="xMidYMid meet">
<metadata>
Created by potrace 1.14, written by Peter Selinger 2001-2017
</metadata>
<g transform="translate(0.000000,713.000000) scale(0.100000,-0.100000)"
fill="#000000" stroke="none">
<path d="M1647 5054 c-1 -1 -33 -4 -72 -8 -520 -49 -980 -373 -1203 -846 -25
-52 -46 -97 -48 -99 -1 -1 -20 -5 -41 -8 -129 -17 -227 -133 -259 -303 -15
-81 -20 -309 -9 -485 6 -106 15 -209 20 -235 3 -14 8 -41 11 -60 9 -54 41
-136 69 -178 52 -78 140 -111 280 -106 l91 3 51 -67 c239 -311 595 -516 988
-570 69 -9 317 -8 390 1 111 15 337 77 360 98 5 5 17 9 27 9 16 0 81 32 181
89 22 12 78 43 125 68 48 25 104 57 124 70 21 12 40 23 42 23 2 0 57 29 121
65 64 36 118 65 120 65 2 0 27 14 55 30 28 17 79 45 113 64 34 18 82 45 107
58 92 51 267 145 330 178 36 18 92 48 125 65 33 18 103 55 156 84 l97 51 17
-52 c77 -237 263 -494 482 -669 165 -132 420 -252 608 -286 11 -2 45 -8 75
-14 125 -25 394 -18 550 14 117 25 311 99 411 158 28 16 52 29 55 29 3 0 10 4
17 10 7 5 48 36 92 69 101 75 195 166 275 267 l63 79 111 1 c127 0 177 16 235
75 35 35 72 107 87 169 4 19 8 37 9 40 3 9 18 123 21 154 6 61 16 333 16 421
1 196 -38 336 -116 423 -38 42 -113 80 -165 84 -30 2 -35 9 -86 113 -50 105
-135 239 -194 309 -64 76 -206 207 -287 265 -152 108 -408 219 -570 246 -21 3
-60 10 -86 14 -74 12 -315 13 -393 2 -137 -21 -239 -46 -340 -86 -33 -13 -70
-26 -82 -30 -13 -3 -105 -52 -205 -107 -101 -55 -208 -114 -238 -131 -30 -16
-90 -49 -132 -73 -43 -24 -80 -44 -83 -44 -3 0 -22 -11 -43 -23 -20 -13 -71
-42 -112 -64 -114 -61 -263 -142 -280 -153 -8 -5 -64 -35 -125 -66 -60 -31
-123 -65 -140 -74 -16 -9 -92 -50 -169 -90 -110 -58 -140 -70 -147 -59 -5 8
-9 18 -9 22 0 11 -19 54 -75 172 -175 372 -544 673 -956 780 -82 22 -89 23
-184 35 -68 9 -252 19 -258 14z m3921 -317 c4 -3 27 -8 52 -12 24 -4 80 -18
124 -32 307 -96 586 -340 714 -623 33 -71 82 -213 82 -234 0 -13 57 -23 230
-42 30 -4 57 -8 59 -10 14 -12 3 -487 -13 -594 -2 -14 -7 -50 -11 -80 -3 -30
-8 -57 -10 -60 -2 -3 -64 2 -137 12 -195 26 -189 27 -217 -29 -14 -27 -35 -62
-48 -80 -13 -17 -23 -35 -23 -38 0 -15 -101 -133 -166 -196 -181 -173 -432
-292 -664 -316 -115 -12 -294 -7 -375 11 -87 19 -118 28 -178 51 -268 100
-469 271 -629 535 -31 51 -86 188 -106 265 -26 101 -31 129 -38 245 -4 52 -7
96 -8 96 0 1 -53 -27 -116 -63 -63 -36 -137 -77 -165 -92 -40 -22 -311 -173
-450 -251 -61 -34 -122 -68 -180 -100 -33 -18 -73 -40 -90 -50 -16 -9 -61 -34
-100 -55 -79 -44 -68 -37 -436 -243 -151 -85 -310 -176 -354 -203 -101 -62
-267 -127 -373 -145 -12 -2 -34 -7 -50 -10 -60 -13 -288 -13 -365 1 -264 48
-464 151 -649 334 -81 81 -208 249 -208 276 0 4 -9 19 -20 35 -18 25 -23 27
-62 20 -43 -8 -140 -20 -188 -23 -22 -2 -25 3 -36 68 -20 121 -26 214 -29 424
-3 212 2 250 32 249 20 0 117 10 148 16 11 3 26 5 33 5 6 1 12 8 12 16 0 30
60 198 96 269 112 219 290 401 505 514 72 38 192 86 242 97 12 2 40 9 62 14
52 13 173 25 255 25 296 -1 585 -117 804 -323 47 -45 166 -184 166 -195 0 -3
11 -21 24 -41 55 -80 120 -239 145 -350 20 -89 22 -99 28 -200 3 -55 6 -101 7
-102 1 -2 166 89 367 200 200 112 389 217 419 234 30 16 111 61 180 100 69 38
145 81 170 95 425 234 629 349 690 388 178 113 353 179 514 196 33 4 62 8 64
9 6 5 261 -3 270 -8z"/>
<path d="M5234 4162 c-118 -35 -225 -102 -304 -189 -51 -57 -123 -190 -135
-248 -34 -171 -16 -309 57 -448 42 -80 164 -202 243 -244 184 -97 407 -97 590
0 73 39 201 163 239 232 71 129 93 260 70 406 -33 211 -183 395 -384 470 -80
30 -85 31 -205 35 -85 3 -124 -1 -171 -14z"/>
<path d="M1605 4163 c-312 -70 -516 -322 -507 -627 12 -387 388 -668 764 -571
79 20 209 91 269 147 250 234 257 630 15 873 -122 123 -242 175 -416 180 -58
1 -114 1 -125 -2z"/>
</g>
</svg>
